<svg width="761" height="306" viewBox="0 0 761 306" fill="none" xmlns="http://www.w3.org/2000/svg">
<path d="M1.6 304.4C2.66667 305.467 3.93333 306 5.4 306L755 306.001C756.467 306.001 757.733 305.468 758.8 304.401C759.867 303.334 760.4 302.068 760.4 300.601V270.401C760.4 268.934 759.867 267.668 758.8 266.601C757.733 265.534 756.467 265.001 755 265.001H702.4L707.2 261.801C718.133 254.601 726.733 248.534 733 243.601C739.4 238.668 744.667 233.268 748.8 227.401C753.067 221.534 755.2 215.268 755.2 208.601C755.2 194.334 750.2 183.334 740.2 175.601C730.2 167.868 715.467 164.001 696 164.001L67 164C53.9333 164 42.5333 166 32.8 170C23.0667 174 15.5333 179.734 10.2 187.201C5 194.534 2.4 203.134 2.4 213C2.4 214.334 2.86667 215.534 3.8 216.6C4.86667 217.534 6.06667 218 7.4 218H48H49.6C50.4 218 51.1333 217.934 51.8 217.801C52.6 217.534 53.2 216.867 53.6 215.8C53.8667 215.134 54.2 213.801 54.6 211.801C55.1333 209.801 56.1333 207.867 57.6 206C59.0667 204.134 61.6667 203.201 65.4 203.201C68.6 203.201 70.6667 203.934 71.6 205.4C72.5333 206.734 73 208.667 73 211.201C73 215.867 67.3333 222.467 56 231C44.8 239.534 27.8667 250.934 5.2 265.201C2.8 266.667 1.33333 268.334 0.8 270.201C0.266667 272.067 0 274 0 276V300.6C0 302.067 0.533333 303.334 1.6 304.4Z" fill="url(#paint0_linear_2_19)"/>
<path fill-rule="evenodd" clip-rule="evenodd" d="M5.4 142C3.93333 142 2.66666 141.467 1.6 140.4C0.533332 139.333 0 138.067 0 136.6V112C0 110 0.266666 108.067 0.799999 106.2C1.33333 104.333 2.8 102.667 5.2 101.2C27.8667 86.9333 44.8 75.5333 56 67C67.3333 58.4667 73 51.8667 73 47.2C73 44.6667 72.5333 42.7333 71.6 41.4C70.6667 39.9333 68.6 39.2 65.4 39.2C61.6667 39.2 59.0667 40.1333 57.6 42C56.1333 43.8667 55.1333 45.8 54.6 47.8C54.2 49.8 53.8667 51.1333 53.6 51.8C53.2 52.8667 52.6 53.5333 51.8 53.8C51.1333 53.9333 50.4 54 49.6 54H7.4C6.06667 54 4.86667 53.5333 3.8 52.6C2.86666 51.5333 2.4 50.3333 2.4 49C2.4 39.1333 5 30.5333 10.2 23.2C15.5333 15.7333 23.0667 10 32.8 6.00001C42.5333 2 53.9333 0 67 0L693.4 0.000488281C705.933 0.000488281 717.2 2.00049 727.2 6.00049C737.333 9.86716 745.4 15.8672 751.4 24.0005C757.4 32.0005 760.4 41.9338 760.4 53.8005V90.2005C760.4 107.934 754.2 121.334 741.8 130.4C729.533 139.467 713.4 144.001 693.4 144.001L5.4 142ZM690 97C703.807 97 715 85.8071 715 72C715 58.1929 703.807 47 690 47C676.193 47 665 58.1929 665 72C665 85.8071 676.193 97 690 97Z" fill="url(#paint1_linear_2_19)"/>
<defs>
<linearGradient id="paint0_linear_2_19" x1="6.22634e-05" y1="164" x2="759.992" y2="164" gradientUnits="userSpaceOnUse">
<stop stop-color="#FF1270"/>
<stop offset="1" stop-color="#FFED19"/>
</linearGradient>
<linearGradient id="paint1_linear_2_19" x1="0" y1="0" x2="760.604" y2="-2.49281e-05" gradientUnits="userSpaceOnUse">
<stop stop-color="#1FCCF6"/>
<stop offset="1" stop-color="#BC18F2"/>
</linearGradient>
</defs>
</svg>
